<svg width="177" height="87" viewBox="0 0 177 87" fill="none" xmlns="http://www.w3.org/2000/svg">
<g clip-path="url(#clip0)">
<path d="M85.3494 86.9998C76.4754 86.862 66.0668 82.7295 57.5739 74.2543C48.8884 65.5916 44.5863 55.0169 44.7747 42.7665C44.9549 31.0567 49.2747 20.9595 57.602 12.708C66.3156 4.07219 76.9492 -0.197023 89.2694 0.0101202C101.216 0.206906 111.467 4.62837 119.795 13.1223C128.255 21.7487 132.391 32.2167 132.225 44.2848C131.907 67.7355 112.537 87.0547 85.3494 86.9998ZM65.8169 43.5101H65.8773C65.9554 43.1891 66.0335 42.8638 66.1168 42.5438C66.4905 41.1 66.8216 39.6438 67.4578 38.2922C68.2314 36.6475 69.0602 35.0297 69.9077 33.4223C70.6032 32.1121 71.3487 30.8288 72.2795 29.6647C73.4956 28.1443 74.4712 26.4851 75.2593 24.7078C75.5634 24.0252 75.8486 23.3334 76.1475 22.6467C76.4983 21.8399 76.8846 21.062 77.4375 20.3557C77.93 19.7239 78.3266 19.0186 78.8056 18.3775C79.0399 18.0606 79.0492 17.7716 78.9201 17.4371C78.8649 17.291 78.791 17.1439 78.7223 16.9834C78.8285 16.8829 78.9253 16.7918 79.0263 16.6996C79.5375 16.2139 80.0352 15.7198 80.5652 15.2517C81.471 14.4459 82.5538 13.9094 83.646 13.3967C84.1437 13.1627 84.6684 13.0943 85.2348 13.1492C85.9345 13.2176 86.6436 13.232 87.3484 13.1999C87.6983 13.1854 88.0023 13.231 88.2876 13.4102C88.7558 13.7 89.2168 14.0012 89.6703 14.3133C90.4199 14.8353 90.9093 15.5593 91.18 16.4158C91.3601 16.9886 91.4934 17.58 91.6225 18.1662C91.6589 18.3443 91.7328 18.4458 91.8942 18.5235C92.6636 18.8995 93.3727 19.3573 94.0401 19.8927C94.2108 20.0305 94.367 20.1631 94.6158 20.1133C94.6991 20.0947 94.8095 20.1548 94.897 20.2003C95.0854 20.3008 95.2697 20.4106 95.4488 20.5256C96.0808 20.9419 96.1308 21.4598 95.5925 21.9963C95.5279 22.0605 95.4446 22.1061 95.3842 22.1744C95.2843 22.2883 95.1593 22.4033 95.1 22.541C94.8053 23.1915 94.4274 23.7777 93.8006 24.163C93.405 24.4053 92.9989 24.6394 92.6033 24.8735C92.5533 24.9046 92.4971 24.9367 92.4471 24.9739C92.065 25.2308 91.6506 25.3862 91.1758 25.3727C90.9082 25.3675 90.6417 25.4141 90.3741 25.4452C90.2138 25.4638 90.1211 25.4183 90.1398 25.2256C90.2367 25.1614 90.3325 25.0972 90.4345 25.033L87.6441 24.511C87.5005 25.0599 87.3807 25.6378 87.2016 26.1919C87.1568 26.3205 87.1393 26.457 87.1502 26.5927C87.1611 26.7283 87.2003 26.8603 87.2651 26.9801C87.5515 27.5622 87.8367 28.1484 88.095 28.7439C88.9925 30.833 89.2548 33.0649 89.5266 35.2959C89.5818 35.763 89.5182 36.2622 89.8181 36.6879C89.8535 36.7397 89.8306 36.8349 89.8358 36.9126L89.7754 36.9582C89.6286 36.8671 89.4808 36.7759 89.3017 36.6703C89.3246 36.7666 89.3329 36.8308 89.3569 36.8898C89.6099 37.5548 89.6515 38.2321 89.5859 38.9375C89.5318 39.5247 89.5818 40.1202 89.5818 40.7106C89.5818 40.7655 89.5589 40.8204 89.5266 40.9488C89.2413 40.7613 89.0018 40.5967 88.7436 40.4268C88.449 41.1508 88.4125 41.8882 88.3292 42.6484C87.8326 42.5573 87.6618 42.1948 87.4911 41.8789C87.2016 42.6898 86.9059 43.4915 86.6207 44.2983C86.0636 45.8736 85.3816 47.3858 84.429 48.7695C84.3186 48.93 84.2582 49.1361 84.1978 49.3288C84.125 49.567 84.0552 49.8135 84.0146 50.0569C83.9355 50.5105 83.8803 50.9683 83.8168 51.4313C83.9219 51.4499 83.9636 51.4623 84.0094 51.4623C85.1755 51.4623 86.3395 51.4675 87.5098 51.4592C87.6067 51.4592 87.717 51.3805 87.8003 51.3163C88.1501 51.0418 88.4635 50.7156 88.8363 50.4919C89.5318 50.0703 90.296 49.8912 91.106 50.1532C91.839 50.3914 92.4794 50.7622 92.8708 51.4447H94.4222C94.519 50.7259 94.6533 50.0289 94.7085 49.3236C94.7866 48.321 94.8053 47.3122 94.8512 46.3097C94.9063 45.0492 94.9844 43.7991 95.3114 42.5707C95.3572 42.3874 95.3166 42.1813 95.3166 41.9659C95.201 42.0208 95.1042 42.0663 95.0125 42.1078C94.9896 42.0943 94.9615 42.0808 94.9386 42.0663C95.0302 41.6728 95.0677 41.2512 95.2333 40.8939C95.8337 39.6078 96.4603 38.334 97.1126 37.0732C97.3198 36.6692 97.2594 36.633 97.0293 36.3678C97.0428 36.0571 96.8408 35.8458 96.643 35.6304C96.583 35.5556 96.5007 35.5016 96.408 35.4761C96.3152 35.4506 96.2167 35.4549 96.1266 35.4885C95.708 35.6118 95.2884 35.6801 94.8376 35.6387C93.8277 35.5434 93.4424 35.1902 93.3269 34.1918C93.3165 34.1089 93.2394 34.0178 93.1655 33.9671C92.8573 33.7609 92.5762 33.5269 92.4054 33.1882C92.3715 33.1284 92.3262 33.0756 92.2722 33.0328C91.991 32.7708 91.9723 32.5461 92.2305 32.2623C92.2981 32.1884 92.3739 32.1224 92.4565 32.0655C92.7875 31.8324 92.9302 31.5062 92.9718 31.1126C93.0228 30.6321 93.1197 30.1504 93.1697 29.6699C93.1926 29.4627 93.304 29.3488 93.4508 29.2245C94.1821 28.6175 95.0023 28.125 95.883 27.7642C96.1776 27.6399 96.2973 27.4431 96.2838 27.1458C96.2814 27.0014 96.2674 26.8573 96.2422 26.715C96.163 26.2386 96.0339 25.7797 95.7674 25.3634C95.6289 25.1479 95.7257 24.9926 95.984 24.9967C96.1224 24.9967 96.2599 25.0195 96.39 25.0609C96.9189 25.2163 97.3521 25.5281 97.7529 25.8895C98.0153 26.1277 98.2735 26.3763 98.5765 26.6601C98.6462 26.4074 98.7285 26.1971 98.7566 25.9765C98.8076 25.5602 98.8399 25.1438 98.8576 24.7264C98.8763 24.2821 99.0054 24.1951 99.4146 24.3784C99.7374 24.5203 99.9904 24.7451 100.165 25.033C100.7 25.9175 101.197 26.8206 101.368 27.8605C101.387 27.9609 101.451 28.0801 101.534 28.1443C102.151 28.6166 102.625 29.2111 103.035 29.8625C103.666 30.8651 104.112 31.9516 104.472 33.0732C104.508 33.1856 104.585 33.2804 104.688 33.3394C105.577 33.7931 106.3 34.4476 106.923 35.2141C108.253 36.8484 109.078 38.7355 109.648 40.7427C109.939 41.7732 110.16 42.8141 110.16 43.8944C110.165 44.899 110.197 45.9057 110.197 46.9093C110.197 47.2346 110.137 47.5598 110.123 47.8902C110.118 47.9772 110.178 48.1232 110.238 48.1418C110.307 48.1646 110.427 48.0911 110.505 48.0362C110.56 47.9948 110.593 47.9119 110.629 47.8487C112.495 44.6556 114.36 41.4625 116.22 38.2684C117.657 35.8086 119.086 33.3436 120.522 30.8796C120.844 30.3244 121.176 29.7755 121.503 29.2256C121.623 29.0236 121.784 28.9739 122.028 29.0101C122.364 29.065 122.714 29.0826 123.056 29.065C123.461 29.0422 123.824 28.8682 124.055 28.5244C124.529 27.8056 124.677 26.8248 123.995 26.0366C123.327 25.2712 122.503 24.7212 121.522 24.4416C120.868 24.2552 120.2 24.2448 119.559 24.511C119.021 24.7316 118.597 25.0931 118.5 25.6886C118.316 26.8206 118.901 27.8056 119.726 28.2219C119.818 28.2675 119.928 28.4011 119.928 28.4964C119.937 28.9273 119.767 29.2256 119.27 29.1976C119.095 29.1883 118.924 29.1386 118.721 29.1013C118.657 29.1883 118.574 29.2753 118.514 29.3768C117.864 30.4394 117.225 31.5072 116.575 32.5699C114.738 35.5942 112.904 38.6174 111.067 41.6407C111.03 41.7007 110.984 41.7546 110.92 41.8374C110.763 41.215 110.611 40.6371 110.459 40.0281C112.928 36.1244 115.414 32.2032 117.897 28.2768C117.833 28.1577 117.773 28.0707 117.736 27.9744C117.602 27.643 117.472 27.3101 117.345 26.976C117.275 26.7927 117.229 26.5959 117.128 26.4302C115.628 23.9487 113.809 21.6726 111.716 19.6597C110.349 18.3435 108.873 17.1434 107.305 16.072C104.354 14.0638 101.096 12.5457 97.6561 11.577C95.2717 10.9004 92.818 10.495 90.3418 10.3683C89.3232 10.3194 88.3028 10.3163 87.2839 10.359C86.2344 10.4004 85.189 10.4729 84.1479 10.6024C81.6493 10.9167 79.1962 11.5208 76.8388 12.4024C73.8285 13.5164 70.9984 15.0629 68.4386 16.9927C66.4529 18.4824 64.6408 20.1881 63.0359 22.0781C60.0696 25.5603 57.8601 29.6156 56.5463 33.9888C55.6726 36.9096 55.2066 39.9359 55.1615 42.9829C55.1469 43.8716 55.1979 44.7644 55.2386 45.6592C55.3166 47.2988 55.5655 48.9207 55.9018 50.5281C55.9663 50.8399 56.0496 51.1475 56.1236 51.4541H67.0559C67.0111 51.3577 66.9778 51.2987 66.9507 51.2438C66.628 50.6296 66.2875 50.0206 65.9887 49.3919C64.556 46.378 63.8876 43.1891 63.8512 39.8634C63.8376 38.6216 63.9345 37.3797 64.1042 36.1483C64.4727 33.4399 65.237 30.8558 66.5135 28.4281C67.6636 26.2489 69.1719 24.2763 70.9759 22.5918C72.7626 20.9057 74.8033 19.5634 76.8794 18.2801C76.9814 18.2159 77.1105 18.1973 77.2251 18.161L77.2948 18.2159C77.2761 18.3537 77.2719 18.4914 77.2344 18.6198C76.8898 19.7374 76.1204 20.5162 75.176 21.1439C73.8487 22.0389 72.6267 23.0794 71.533 24.2458C69.8047 26.0609 68.3945 28.1513 67.361 30.4301C66.1449 33.1105 65.5327 35.9235 65.4213 38.8504C65.3813 39.9716 65.443 41.094 65.6055 42.2041C65.6472 42.6349 65.7347 43.0699 65.8179 43.5091L65.8169 43.5101ZM101.148 64.1519H90.978C90.853 64.1519 90.7333 64.1695 90.6094 64.1747C89.9826 64.1923 89.3517 64.2244 88.7249 64.2244C88.2043 64.2244 87.6847 64.1561 87.1642 64.1561C79.0076 64.1519 70.8562 64.1519 62.6996 64.1519H62.3821C64.556 66.8686 67.0382 69.1544 69.8796 71.0415C76.0423 75.1326 82.8401 76.9968 90.2273 76.6312C96.845 76.3008 102.837 74.1621 108.193 70.2771C110.591 68.5384 112.74 66.4838 114.581 64.1695H102.75C102.712 64.2161 102.677 64.2482 102.653 64.2886C102.271 64.9484 101.851 65.5947 101.515 66.2772C100.594 68.1332 99.3876 69.7676 97.8539 71.1658C96.6787 72.2445 95.3223 73.1097 93.8464 73.7219C92.4835 74.2812 91.0602 74.6023 89.587 74.6976C88.0804 74.7939 86.5988 74.7027 85.1422 74.3133C82.9037 73.7126 80.9983 72.5443 79.3345 70.9597C78.4505 70.1166 77.6634 69.1907 77.0231 68.1508C76.9544 68.0369 76.9221 67.9033 76.8711 67.78C76.8981 67.7614 76.9263 67.7438 76.9585 67.7251C77.0273 67.7842 77.1053 67.8391 77.1657 67.9033C77.4187 68.1974 77.654 68.5133 77.9206 68.7971C79.4917 70.4646 81.4262 71.5459 83.5856 72.2512C84.8059 72.6499 86.0595 72.9016 87.3339 73.058C88.5312 73.2041 89.739 73.2362 90.9363 73.058C93.4695 72.6779 95.5321 71.4268 97.2771 69.6122C98.4713 68.3714 99.4469 66.9691 100.345 65.5035C100.608 65.0727 100.856 64.6366 101.147 64.1519H101.148ZM120.404 33.7589C120.381 33.7589 120.358 33.7547 120.334 33.7547L110.096 51.4427H120.9C122.319 45.4914 122.162 39.6045 120.404 33.7589ZM94.0307 80.8518C94.1234 80.7741 94.1827 80.7275 94.2431 80.6819C94.8324 80.2148 94.897 79.2754 94.3576 78.7493C93.9349 78.336 93.3998 78.2677 92.8375 78.3226C92.3502 78.3681 91.8671 78.4323 91.3788 78.4924C91.0748 78.5287 90.7749 78.5701 90.4251 78.6167C90.6458 80.4396 90.8624 82.2396 91.0748 84.0356C91.1529 84.0449 91.18 84.0542 91.2081 84.0542C91.991 83.962 92.7782 83.8802 93.557 83.7746C94.0547 83.7062 94.5336 83.5685 94.9157 83.2111C95.0789 83.0627 95.2019 82.8758 95.2734 82.6677C95.3449 82.4596 95.3627 82.237 95.325 82.0203C95.2874 81.8036 95.1956 81.5997 95.058 81.4276C94.9204 81.2554 94.7415 81.1204 94.5378 81.0351C94.3899 80.9626 94.2296 80.9212 94.0307 80.8518ZM73.279 75.1067C72.5783 76.7742 71.8838 78.4417 71.1738 80.1371C71.3768 80.2148 71.5475 80.279 71.7308 80.3526C72.3066 78.9875 72.8646 77.6587 73.4217 76.3257L73.4862 76.3392C73.7205 77.466 73.9547 78.5929 74.1994 79.7612C75.2177 79.1014 76.1797 78.4738 77.1428 77.8461L77.1886 77.8876C76.6316 79.2257 76.0694 80.5628 75.503 81.9237C75.7008 82.0066 75.8674 82.075 76.06 82.1526C76.7742 80.4489 77.4739 78.7762 78.184 77.0859C77.9716 76.9989 77.7883 76.9306 77.603 76.857C76.5993 77.5261 75.604 78.1807 74.5815 78.8591C74.5503 78.7213 74.5263 78.6343 74.5086 78.5473L73.9422 75.6753C73.8589 75.262 73.7673 75.175 73.279 75.1067ZM84.024 78.4002C83.9219 80.2334 83.8261 82.0294 83.7241 83.875C83.9126 83.8937 84.0885 83.9071 84.3134 83.9258C84.3967 82.4457 84.4748 81.0071 84.5529 79.5685C84.5758 79.5644 84.6039 79.5644 84.6258 79.5602C85.2213 80.5359 85.8148 81.5074 86.4416 82.5379C87.1735 81.5851 87.8732 80.6684 88.5739 79.757L88.6426 79.7839C88.5645 81.2277 88.4906 82.6746 88.4125 84.1371H89.0018C89.0987 82.3132 89.1996 80.5079 89.2965 78.7027C88.9196 78.625 88.652 78.6612 88.4167 78.9958C87.8732 79.7746 87.2839 80.5172 86.7133 81.2733C86.6488 81.3562 86.5842 81.439 86.4915 81.5529C85.8737 80.5194 85.2566 79.4854 84.6403 78.451C84.4331 78.4323 84.2624 78.4199 84.0229 78.4002H84.024ZM104.348 78.277C104.532 78.103 104.693 77.9704 104.827 77.8192C105.545 77.0082 105.112 75.5965 104.057 75.3262C103.542 75.1937 103.04 75.2807 102.556 75.5002C101.898 75.7985 101.244 76.0916 100.589 76.3889C100.525 76.422 100.46 76.4624 100.382 76.509L102.666 81.4929C102.869 81.4017 103.035 81.323 103.219 81.2412C102.92 80.5815 102.634 79.9538 102.339 79.2982C102.846 79.0703 103.316 78.8539 103.772 78.6478C103.85 78.6799 103.901 78.7027 103.947 78.7254C104.574 79.0652 105.199 79.4038 105.821 79.7477C106.157 79.931 106.452 79.8803 106.756 79.5872C105.964 79.1563 105.177 78.7254 104.348 78.277ZM78.8649 7.31191C78.9992 7.22491 79.0867 7.16484 79.1742 7.10476C79.5511 6.82098 79.8551 6.48748 79.8874 5.98309C79.9613 4.80133 79.0815 3.99969 77.9029 4.24723C77.097 4.41191 76.3099 4.69155 75.5175 4.92044C75.4113 4.95151 75.3051 4.99294 75.1719 5.03437C75.706 6.78473 76.2401 8.51644 76.7742 10.2709C76.9773 10.2119 77.147 10.157 77.3459 10.0969C77.1335 9.40094 76.9304 8.73187 76.7284 8.04934C77.2626 7.8888 77.7509 7.74276 78.2527 7.58637C78.9805 8.11769 79.7031 8.64073 80.4215 9.16273C80.6526 9.09334 80.864 9.03016 81.1264 8.9473C80.3528 8.39837 79.6292 7.87016 78.8649 7.31087V7.31191ZM94.1098 3.09655L93.0322 8.47501C93.2529 8.52162 93.4237 8.55269 93.6122 8.58894C93.76 7.87948 93.8974 7.20109 94.0359 6.53305C94.1005 6.52787 94.1275 6.51441 94.1556 6.51959C94.5971 6.60244 95.0448 6.68426 95.4863 6.78058C95.5602 6.79819 95.6383 6.88105 95.6799 6.95459C95.8132 7.20212 95.9288 7.45794 96.0527 7.7148L96.7763 9.21659C97.0158 9.26319 97.2365 9.3098 97.4989 9.35951C97.0897 8.4978 96.6972 7.68684 96.2973 6.83962C96.4494 6.82616 96.5368 6.81269 96.6243 6.80337C97.3292 6.75262 97.8726 6.32694 98.0476 5.69516C98.2495 4.95669 98.0288 4.32491 97.3927 3.92616C97.1243 3.76505 96.8324 3.64626 96.5274 3.57401C95.91 3.42176 95.2843 3.31716 94.6575 3.19287C94.4909 3.16594 94.3306 3.13798 94.1098 3.09655ZM89.3839 8.32898C90.6958 8.41183 92.1889 7.36162 92.2076 5.47041C92.2211 3.87541 90.9821 2.65741 89.3798 2.65741C87.7722 2.65741 86.5655 3.89405 86.5613 5.52944C86.5613 7.10994 87.8138 8.39837 89.3839 8.32898ZM72.1598 6.53719C70.8427 6.4823 69.3132 7.54494 69.309 9.30876C69.3038 10.9131 70.5657 12.2139 72.1223 12.2191C73.7028 12.2233 74.9595 11.0084 74.9647 9.4693C74.9688 7.82976 73.7392 6.54237 72.1598 6.53823V6.53719ZM82.2779 80.568C81.2784 80.3381 80.3205 80.1185 79.3262 79.8948C79.4688 79.2619 79.6073 78.6664 79.7499 78.0346C80.8598 78.2811 81.9364 78.5245 83.0473 78.7721C83.089 78.5753 83.1161 78.423 83.1525 78.249C81.85 77.9559 80.5829 77.668 79.2793 77.3749C78.8701 79.1749 78.4641 80.9377 78.0549 82.7295C79.3772 83.0278 80.661 83.3209 81.9739 83.614C82.0155 83.4266 82.052 83.2702 82.0884 83.092C80.965 82.8352 79.8738 82.5835 78.7587 82.3318C78.9107 81.6721 79.0544 81.0672 79.2012 80.4261C80.2008 80.6498 81.1586 80.8652 82.1446 81.0848C82.1946 80.9067 82.2321 80.7554 82.2779 80.5669V80.568ZM112.126 14.5039C112.242 14.3579 112.334 14.2346 112.449 14.0876C111.647 13.4558 110.874 12.8416 110.086 12.2181C110.5 11.7002 110.887 11.2103 111.288 10.7111C112.186 11.4123 113.052 12.0948 113.941 12.796C114.061 12.6489 114.158 12.5257 114.272 12.3786L111.136 9.91362L107.7 14.2336C108.769 15.0725 109.81 15.8928 110.869 16.7265L111.187 16.2998C110.279 15.5852 109.405 14.8944 108.511 14.188C108.93 13.6619 109.327 13.1668 109.741 12.6448C110.551 13.2724 111.33 13.8814 112.126 14.5049V14.5039ZM95.6893 77.8689C96.187 79.6421 96.6784 81.3831 97.1813 83.1697C98.489 82.8072 99.7655 82.4509 101.06 82.0884C100.999 81.9009 100.958 81.7591 100.904 81.5809C99.7926 81.8875 98.715 82.1847 97.6092 82.4872C97.426 81.8367 97.2594 81.2319 97.0803 80.5949C98.0653 80.3153 99.0148 80.0501 99.9904 79.7746C99.9404 79.5965 99.8936 79.4401 99.8436 79.2671L96.9325 80.0677C96.7534 79.4318 96.5826 78.8352 96.4119 78.2221L99.6728 77.3107C99.6177 77.1222 99.576 76.9761 99.526 76.797C98.2318 77.1594 96.9699 77.5074 95.6893 77.8689ZM102.072 5.12137C100.668 6.56101 99.2678 7.99859 97.8539 9.44651L98.337 9.62984L98.4203 9.68473L99.424 8.48951L102.33 9.59359C102.362 10.1342 102.39 10.6469 102.417 11.1824C102.598 11.2518 102.772 11.316 103.012 11.403L102.647 5.34612C102.464 5.27776 102.303 5.21355 102.073 5.12137H102.072ZM81.1368 3.40416C81.3992 5.23633 81.6574 7.02294 81.9197 8.83751C82.1405 8.80541 82.3112 8.77744 82.509 8.75051C82.4174 8.09491 82.3341 7.47659 82.2425 6.82616C82.6069 6.77126 82.937 6.72051 83.2691 6.67494C83.748 6.61073 84.227 6.53719 84.6466 6.26687C85.314 5.84119 85.5993 5.24151 85.4524 4.45334C85.314 3.74698 84.8902 3.29851 84.1947 3.15662C83.8654 3.09383 83.5283 3.08126 83.1952 3.11933C82.5184 3.18873 81.8458 3.30266 81.1368 3.40416ZM128.569 43.3206C128.528 43.1704 128.519 42.9964 128.435 42.868C128.173 42.4506 127.924 42.0104 127.597 41.6489C126.828 40.8017 125.811 41.1591 125.332 41.7453C125.011 42.1275 124.785 42.5795 124.673 43.0648C124.558 43.5826 124.908 43.9493 125.428 43.8302C125.649 43.7784 125.87 43.7017 126.086 43.623C126.279 43.5469 126.485 43.5102 126.693 43.515C126.9 43.5198 127.104 43.5661 127.293 43.651C127.445 43.7193 127.602 43.7887 127.763 43.8291C128.201 43.9534 128.542 43.7245 128.569 43.3216V43.3206ZM51.8318 44.0352C52.2379 43.999 52.417 43.8436 52.4034 43.4759C52.4002 43.3398 52.3735 43.2053 52.3243 43.0782C52.1123 42.5697 51.7935 42.112 51.3893 41.736C50.8604 41.2367 50.2388 41.1539 49.6256 41.5485C48.9623 41.9793 48.6489 42.6474 48.5157 43.3993C48.4605 43.71 48.7458 44.0083 49.0685 43.9897C49.308 43.9762 49.5569 43.9254 49.7776 43.8384C50.2846 43.6417 50.7729 43.6147 51.2696 43.8529C51.4445 43.9358 51.6434 43.9772 51.8318 44.0363V44.0352ZM69.4756 12.5982C69.4433 12.7266 69.4152 12.8281 69.3923 12.9286C69.208 13.7023 68.7613 14.2657 68.0159 14.5598C66.9559 14.9762 65.7815 14.4956 65.188 13.4278C64.4144 12.0296 65.2016 10.4222 66.7862 10.1839C67.0392 10.1477 67.2964 10.1477 67.5775 10.129C67.5963 9.94159 67.615 9.77691 67.6296 9.61119C66.477 9.35537 65.2297 10.0327 64.6487 11.0042C64.023 12.0534 64.2249 13.4692 65.1464 14.4221C66.0126 15.3201 67.3985 15.5531 68.4438 14.9814C69.3975 14.4635 70.0285 13.4558 69.9504 12.6407C69.7918 12.6304 69.6335 12.6166 69.4756 12.5992V12.5982ZM59.0014 56.3965C59.0154 56.3793 59.028 56.3609 59.0388 56.3416C58.688 56.3323 58.6703 56.093 58.6609 55.86L58.5776 53.9864C58.5734 53.8673 58.588 53.744 58.5922 53.6239C58.6151 53.6239 58.638 53.6197 58.6609 53.6197C58.9514 54.5726 59.246 55.5254 59.5355 56.4783H59.6417L60.5444 53.6249C60.586 53.7078 60.5996 53.7254 60.5996 53.744C60.5902 54.4307 60.5808 55.1132 60.5683 55.8009C60.5683 55.9149 60.5683 56.034 60.5309 56.1396C60.4934 56.2453 60.4163 56.3364 60.3882 56.383H61.7282C61.4242 56.3188 61.3825 56.0847 61.3784 55.8507C61.3555 55.0086 61.3315 54.1604 61.3232 53.3173C61.318 52.9144 61.3367 52.9144 61.7147 52.7994C61.723 52.7953 61.723 52.7725 61.7376 52.7363H60.6131C60.3882 53.4923 60.2216 54.2753 59.9176 55.0128H59.8301C59.5959 54.2526 59.3564 53.4965 59.1221 52.7311H58.0018C58.0341 52.7725 58.0435 52.7953 58.0622 52.8036C58.4214 52.9424 58.435 52.9465 58.4308 53.3214C58.4204 54.032 58.4256 54.7424 58.3756 55.4478C58.3517 55.7916 58.4631 56.2453 57.9467 56.4006C58.3007 56.3965 58.6515 56.3965 59.0014 56.3965ZM106.241 61.5181C106.25 61.5005 106.263 61.4818 106.273 61.4632C105.992 61.4363 105.941 61.2478 105.931 61.0375C105.9 60.3912 105.872 59.7449 105.849 59.0945C105.844 58.9702 105.849 58.847 105.849 58.7237C105.872 58.7186 105.9 58.7186 105.923 58.7144C106.212 59.6673 106.507 60.6201 106.798 61.573C106.826 61.573 106.853 61.5782 106.885 61.5782C106.927 61.4953 106.973 61.4176 107.001 61.3296C107.244 60.5611 107.484 59.7864 107.728 59.0127C107.751 58.9392 107.788 58.8698 107.816 58.8014L107.88 58.8149V59.0583C107.866 59.6766 107.856 60.2949 107.839 60.9091C107.834 61.138 107.889 61.4042 107.507 61.4632L107.567 61.5088H109.008C108.791 61.4363 108.672 61.2985 108.663 61.0738C108.631 60.2452 108.584 59.4156 108.58 58.5818C108.58 58.3022 108.516 57.9314 108.966 57.8486H107.885C107.778 58.2338 107.677 58.6139 107.567 58.9941C107.451 59.3742 107.328 59.7543 107.203 60.1302C107.176 60.1302 107.143 60.1251 107.115 60.1251C106.991 59.7543 106.862 59.3793 106.747 59.0075C106.629 58.6242 106.515 58.2396 106.406 57.8537H105.315C105.674 58.0132 105.72 58.064 105.711 58.4669C105.69 59.237 105.663 60.0069 105.628 60.7765C105.619 61.0831 105.6 61.3897 105.222 61.514C105.564 61.5181 105.904 61.5181 106.241 61.5181ZM96.339 57.8537C96.6659 57.9366 96.642 58.1872 96.6472 58.4254C96.6472 58.6326 96.6513 58.8377 96.6513 59.0448V59.4518H95.6247C95.6477 58.9443 95.5696 58.4576 95.6799 57.9998C95.7716 57.949 95.8361 57.9128 95.9517 57.8527H94.5929C94.6762 57.9677 94.8376 58.0868 94.8418 58.2111C94.873 59.0624 94.8928 59.92 94.8782 60.7713C94.8741 61.0375 94.9615 61.3948 94.5471 61.5046H95.8871C95.6664 61.4083 95.6341 61.225 95.6289 61.0375C95.6206 60.7164 95.6206 60.3954 95.6206 60.0743V59.6859H96.6336C96.6336 60.1665 96.6513 60.616 96.6232 61.0603C96.6149 61.2157 96.4993 61.3669 96.4441 61.5005H97.729C97.4853 61.4218 97.4166 61.2478 97.4114 61.0323C97.402 60.1261 97.3885 59.2188 97.3843 58.3115C97.3843 58.2017 97.4301 58.0919 97.4489 58.0008C97.5499 57.9542 97.6186 57.9179 97.6884 57.8858C97.6832 57.8755 97.6832 57.8672 97.6779 57.8527H96.34L96.339 57.8537ZM102.953 58.0091C103.261 57.9407 103.459 58.0319 103.565 58.2753C103.698 58.5818 103.758 58.9164 103.624 59.2323C103.565 59.3793 103.409 59.4933 103.284 59.6082C103.233 59.6538 103.15 59.6631 103.09 59.6859C103.27 60.1302 103.436 60.5611 103.615 60.9868C103.837 61.5088 104.416 61.7428 104.96 61.5316C104.969 61.5274 104.965 61.5046 104.969 61.4901C104.574 61.2892 103.882 60.0608 103.873 59.5388C103.966 59.4612 104.067 59.3876 104.154 59.3058C104.454 59.0168 104.509 58.6595 104.38 58.2929C104.255 57.949 103.932 57.8579 103.597 57.8351C103.56 57.8299 103.519 57.8299 103.483 57.8299C102.985 57.8299 102.487 57.8299 101.989 57.8351C101.934 57.8351 101.879 57.8486 101.819 57.8579L101.759 57.9169C102.197 57.9034 102.17 58.1789 102.17 58.4348V60.7713C102.17 61.0551 102.242 61.3762 101.866 61.514H103.279C102.953 61.3068 102.947 61.3068 102.943 61.0831C102.924 60.2079 102.911 59.3286 102.902 58.4534C102.902 58.3063 102.933 58.1603 102.953 58.0081V58.0091ZM83.1213 61.4767C82.8714 61.3897 82.8162 61.2157 82.8162 60.9826C82.812 60.0608 82.7933 59.1359 82.7891 58.2152C82.7891 58.1241 82.8349 58.0319 82.8537 57.9542C83.1806 57.8993 83.3784 58.0226 83.4846 58.3478C83.5763 58.6274 83.5992 58.9112 83.5034 59.2002C83.4065 59.4746 83.19 59.5937 82.9453 59.6258C83.0286 59.8009 83.0973 59.9428 83.1577 60.0847C83.3003 60.4275 83.4201 60.7858 83.5815 61.1245C83.7657 61.5139 84.4665 61.688 84.8569 61.4591C84.4061 61.1701 83.747 59.9977 83.7512 59.4933C83.848 59.4156 83.9448 59.3421 84.0323 59.2602C84.3363 58.9702 84.3738 58.6139 84.2541 58.2473C84.1385 57.9034 83.8209 57.8258 83.494 57.7895C83.4388 57.7843 83.3878 57.7843 83.3326 57.7843C82.8349 57.7843 82.3372 57.7843 81.8406 57.7895C81.7896 57.7895 81.7438 57.803 81.6699 57.8123C82.052 57.9998 82.052 57.9998 82.052 58.4306C82.052 59.2178 82.052 60.0018 82.0478 60.79C82.0478 61.0644 82.0895 61.3721 81.7063 61.4767H83.1213ZM68.1658 59.6445C68.2491 59.8413 68.3272 60.0205 68.4001 60.1986C68.5198 60.4969 68.626 60.7993 68.7645 61.0872C68.9623 61.5046 69.6443 61.6921 70.0305 61.486C69.4225 60.9681 69.1872 60.2359 68.9165 59.5161C69.0081 59.4477 69.0685 59.4021 69.1278 59.3607C69.2896 59.2423 69.4105 59.077 69.4739 58.8874C69.5373 58.6978 69.5401 58.4934 69.4818 58.3022C69.3861 57.9863 69.1091 57.8123 68.6677 57.7895C68.6073 57.7843 68.5427 57.7843 68.4834 57.7843C68.0086 57.7843 67.5348 57.7843 67.0601 57.7895C67.0143 57.7895 66.9632 57.803 66.9174 57.8123C66.9039 57.8299 66.8904 57.8486 66.8716 57.8672C67.2027 57.862 67.2631 58.0681 67.2631 58.2929C67.2631 59.1774 67.2496 60.0619 67.2444 60.9453C67.2444 61.1887 67.1933 61.3803 66.9216 61.4632H68.3449C68.096 61.4083 68.0086 61.2384 68.0086 61.0189C68.0044 60.0753 68.0003 59.1318 68.0044 58.1872C68.0044 57.9449 68.1471 57.8579 68.3688 57.9677C68.464 58.0148 68.5448 58.0863 68.6031 58.1748C68.9623 58.7372 68.7551 59.4021 68.1658 59.6455V59.6445ZM68.0232 54.5633C68.1606 54.9164 68.2939 55.2551 68.424 55.5948C68.7322 56.3923 68.93 56.5197 69.7817 56.4472C69.8327 56.4421 69.8837 56.4193 69.966 56.3923C69.5058 56.1676 68.8467 55.0356 68.7967 54.4214C68.8696 54.3623 68.9623 54.3023 69.0362 54.2298C69.3173 53.9594 69.4371 53.6384 69.335 53.2531C69.2476 52.9051 68.9758 52.7818 68.6583 52.7269C68.5593 52.71 68.4589 52.7024 68.3584 52.7042C67.8711 52.7042 67.3828 52.7042 66.8904 52.7083C66.8582 52.7096 66.8267 52.7174 66.7977 52.7311C66.8945 52.8502 67.0465 52.9558 67.0736 53.0832C67.1288 53.3359 67.1257 53.5969 67.1205 53.8579C67.1153 54.5042 67.0975 55.1547 67.0882 55.8009C67.083 56.0433 67.1111 56.3043 66.779 56.3913H68.1564C67.9263 56.3229 67.8618 56.1583 67.8566 55.947C67.843 55.0863 67.8295 54.2246 67.8201 53.3639C67.8201 53.2086 67.8566 53.0522 67.8753 52.9103C68.1606 52.7963 68.4001 52.9237 68.5208 53.2313C68.7738 53.8579 68.5802 54.3623 68.0232 54.5633ZM84.3675 37.3145C84.4186 37.1912 84.455 37.1136 84.4779 37.0307C84.6445 36.458 84.6674 35.8717 84.5799 35.2855C84.3675 33.8283 83.8563 32.5139 82.7194 31.5052C82.0239 30.8879 81.2638 30.3835 80.3424 30.1681C80.1862 30.1318 80.0113 30.1453 79.8499 30.137C79.8447 30.1681 79.8363 30.196 79.8311 30.2281C79.9144 30.2737 79.9925 30.3234 80.0758 30.3607C80.8321 30.6704 81.4995 31.1614 82.0187 31.79C83.014 32.9904 83.594 34.3969 84.0364 35.8676C84.1697 36.3161 84.2478 36.7925 84.3675 37.3155V37.3145ZM96.0485 54.5094C96.0298 54.3623 96.0204 54.1428 95.9798 53.9273C95.8548 53.2438 95.4863 52.8502 94.8834 52.7311C94.2795 52.6172 93.6757 52.8595 93.3591 53.4281C92.9031 54.2474 92.8937 55.1226 93.331 55.947C93.7642 56.7579 94.998 56.8222 95.5883 56.1127C95.9558 55.6673 96.0204 55.1319 96.0485 54.5094ZM121.678 54.5778C121.678 54.4266 121.687 54.2702 121.678 54.12C121.623 53.4136 121.227 52.8875 120.651 52.7539C119.947 52.5944 119.329 52.8409 118.989 53.4965C118.579 54.2795 118.607 55.0956 118.966 55.8973C119.03 56.0392 119.141 56.1666 119.26 56.2681C119.97 56.8543 121.034 56.6306 121.452 55.8144C121.65 55.4302 121.706 55.0086 121.678 54.5778ZM109.529 9.47448C109.63 9.30048 109.709 9.15755 109.806 8.98769C108.548 8.26476 107.314 7.55426 106.056 6.83548C105.955 7.00948 105.872 7.15655 105.78 7.32123C106.332 7.6423 106.843 7.94369 107.383 8.25544C106.554 9.68887 105.739 11.0912 104.909 12.5257C105.089 12.6303 105.241 12.7225 105.425 12.8323C106.263 11.3978 107.083 9.98301 107.913 8.55787C108.47 8.86858 108.981 9.15859 109.529 9.47448ZM76.2266 61.5554C76.2307 61.4539 76.2443 61.3721 76.2401 61.2892C76.2307 60.9547 76.1985 60.6201 76.2037 60.2856C76.2084 59.7448 76.2222 59.204 76.2453 58.6637C76.2589 58.3302 76.1662 57.9407 76.641 57.8123H75.5269C75.5123 57.8299 75.4936 57.8486 75.4801 57.8672C75.9403 57.8713 75.9777 58.1883 75.9913 58.4897C76.0142 59.0624 76.0142 59.631 76.0194 60.2038C76.0194 60.2131 76.0007 60.2214 75.9496 60.2587C75.4988 59.4342 75.0469 58.6139 74.6055 57.8123H73.5591C73.9006 57.862 73.9829 58.0919 73.9964 58.3799C73.9964 58.4172 74.0016 58.4576 74.0016 58.4938C73.9839 59.1639 73.9974 59.8371 73.937 60.5062C73.9058 60.849 74.0516 61.3213 73.5133 61.4591H74.7065C74.7158 61.4404 74.7294 61.4176 74.7377 61.399C74.3004 61.4311 74.1994 61.1701 74.1953 60.8356C74.1859 60.1261 74.1817 59.4197 74.1723 58.7103C74.1723 58.6916 74.1953 58.6782 74.2275 58.6326C74.3525 58.8563 74.467 59.0572 74.5774 59.2644L75.6133 61.1753C75.7424 61.399 75.9038 61.5688 76.2266 61.5554ZM84.9537 52.7767C84.9496 52.7632 84.9496 52.7497 84.9444 52.7311H83.8074L83.7605 52.7912C84.2863 52.7912 84.2634 53.1713 84.2947 53.4872C84.3321 53.8217 84.3363 54.1562 84.3467 54.4908C84.3551 54.7145 84.3467 54.9392 84.3467 55.164C84.3134 55.1733 84.2811 55.1826 84.2447 55.1909L82.8953 52.7311H81.8677C81.8541 52.7497 81.8448 52.7684 81.8312 52.786C82.2092 52.8005 82.2821 53.0377 82.2779 53.3173C82.255 54.1469 82.2227 54.9765 82.1904 55.8103C82.1811 56.062 82.1446 56.3043 81.8312 56.383H83.0473C82.5361 56.1945 82.5174 56.1945 82.4903 55.6953C82.458 55.0262 82.458 54.353 82.4487 53.6839C82.4487 53.6477 82.4716 53.6115 82.5038 53.5327C82.6048 53.7161 82.6923 53.858 82.7704 54.005L83.9542 56.1769C84.0024 56.2769 84.0817 56.3589 84.1803 56.4107C84.2789 56.4626 84.3916 56.4815 84.5019 56.4648C84.5071 56.3509 84.5206 56.2494 84.5206 56.1438C84.5206 55.2738 84.5206 54.4079 84.5258 53.5379C84.5258 53.3774 84.53 53.2127 84.581 53.0615C84.6122 52.9652 84.7236 52.8958 84.81 52.8233C84.8517 52.7994 84.9079 52.7953 84.9537 52.7767ZM110.846 55.1733C110.938 55.1091 110.988 55.077 111.044 55.0407C111.039 55.0262 111.039 55.0086 111.035 54.9941H109.713C109.741 55.0542 109.773 55.077 109.81 55.0718C110.03 55.0635 110.109 55.2002 110.118 55.3887C110.127 55.6083 110.146 55.8331 110.118 56.0485C110.104 56.1676 110.03 56.3592 109.948 56.3778C109.814 56.4099 109.597 56.383 109.51 56.2908C109.337 56.11 109.206 55.8946 109.124 55.6591C108.949 55.1102 108.925 54.5247 109.055 53.9636C109.11 53.7026 109.215 53.4364 109.358 53.2075C109.542 52.9051 109.901 52.8181 110.256 52.9279C110.57 53.0201 110.671 53.1764 110.699 53.5876C110.703 53.6425 110.722 53.6933 110.735 53.743C110.758 53.743 110.781 53.7388 110.8 53.7388C110.823 53.4592 110.842 53.1796 110.864 52.8875C110.768 52.8502 110.694 52.8005 110.616 52.7953C110.325 52.7725 110.036 52.7363 109.745 52.7591C108.981 52.8181 108.35 53.3494 108.23 54.1013C108.161 54.527 108.17 54.9858 108.24 55.4167C108.341 56.0526 108.82 56.4969 109.418 56.5249C109.865 56.5477 110.317 56.4835 110.768 56.4472C110.842 56.4421 110.91 56.3955 110.98 56.3737C110.712 55.9656 110.851 55.5669 110.846 55.1723V55.1733ZM92.8937 61.514C92.9073 61.4912 92.9166 61.4684 92.9302 61.4446C92.6126 61.4725 92.5023 61.3078 92.4981 61.0468C92.4835 60.1302 92.47 59.2188 92.4606 58.3022C92.4606 58.2017 92.4929 58.1002 92.5116 58.0091C92.8157 57.9728 93.0364 58.1096 93.1238 58.4399C93.1926 58.7144 93.2113 59.0075 93.2019 59.2923C93.1926 59.6082 93.0551 59.8599 92.6866 59.9428C92.8615 59.9604 93.0093 59.9511 93.152 59.9107C93.6954 59.7408 94.0401 59.1857 93.9537 58.6461C93.8652 58.0826 93.5434 57.8392 92.8708 57.8258H92.825C92.3825 57.8258 91.9359 57.8258 91.4934 57.8299C91.4382 57.8299 91.383 57.8444 91.2539 57.8579C91.4288 57.9221 91.5392 57.9583 91.6683 58.005C91.687 58.1375 91.7193 58.2659 91.7193 58.3933C91.7235 59.196 91.7287 59.9977 91.7193 60.7993C91.7151 61.0924 91.7464 61.4176 91.332 61.5088C91.8526 61.514 92.3732 61.514 92.8937 61.514ZM99.0554 57.8527L99.0419 57.8941C99.0877 57.9128 99.1346 57.9449 99.1804 57.949C99.3876 57.9811 99.4427 58.1096 99.4105 58.2981C99.3969 58.3706 99.3876 58.4493 99.3647 58.5218C99.1148 59.3058 98.867 60.094 98.6088 60.8728C98.5255 61.1193 98.4484 61.3762 98.1121 61.5088H99.0648C98.9961 61.4042 98.8534 61.2851 98.867 61.1877C98.9086 60.8677 99.0054 60.5518 99.0877 60.2214C99.374 60.2079 99.6312 60.1945 99.9258 60.1758C99.9998 60.5797 100.064 60.964 100.129 61.3172C100.037 61.4042 99.9862 61.4497 99.9258 61.5046H101.279C101.036 61.4083 100.967 61.2022 100.916 60.992C100.687 60.0287 100.46 59.0624 100.23 58.1002C100.212 58.0132 100.18 57.9314 100.152 57.8486C99.7697 57.8537 99.4146 57.8537 99.0554 57.8537V57.8527ZM112.504 61.514C112.255 61.4125 112.21 61.1981 112.159 61.0002C111.995 60.3729 111.839 59.7439 111.689 59.1132C111.592 58.701 111.509 58.2846 111.417 57.8579H110.279C110.314 57.9045 110.365 57.937 110.422 57.949C110.644 57.977 110.703 58.1044 110.657 58.3063C110.644 58.3664 110.639 58.4254 110.62 58.4855C110.365 59.3019 110.102 60.116 109.833 60.9277C109.755 61.1608 109.686 61.4083 109.414 61.5088H110.307C110.233 61.4124 110.091 61.3078 110.104 61.225C110.155 60.8904 110.252 60.5611 110.33 60.2266C110.625 60.2079 110.874 60.1944 111.163 60.181C111.237 60.5746 111.311 60.9598 111.389 61.3897C111.315 61.4269 111.251 61.4632 111.136 61.5233C111.642 61.5129 112.071 61.5129 112.504 61.5129V61.514ZM80.4631 56.3913C80.2424 56.2401 80.1966 56.208 80.1175 55.8879C79.878 54.9164 79.6573 53.945 79.422 52.9693C79.4043 52.8823 79.372 52.8005 79.3491 52.7363H78.1694C78.6723 52.9786 78.69 52.9838 78.5338 53.4965C78.2888 54.2987 78.0277 55.096 77.7509 55.8879C77.6863 56.0713 77.5343 56.2266 77.4333 56.383H78.2663C78.1975 56.2722 78.0549 56.1583 78.0643 56.062C78.1059 55.7409 78.2017 55.4302 78.285 55.0905H79.1283C79.1919 55.4612 79.2616 55.8465 79.3262 56.2038C79.2293 56.2867 79.1742 56.3281 79.1002 56.3913H80.4642H80.4631ZM80.56 61.4684C80.3163 61.3534 80.2518 61.1338 80.2008 60.9091C79.9707 59.9376 79.7447 58.9661 79.5146 57.9956C79.5011 57.9314 79.473 57.8713 79.4542 57.8071H78.3079C78.3443 57.8486 78.3589 57.8713 78.3766 57.8807C78.7775 58.0277 78.791 58.0319 78.6681 58.4493C78.4089 59.2872 78.1371 60.1168 77.8664 60.9505C77.7967 61.1608 77.7092 61.3627 77.4697 61.4632H78.3766C78.2985 61.3627 78.1517 61.2529 78.1653 61.1659C78.2111 60.8314 78.3079 60.501 78.3912 60.1717C78.6806 60.1572 78.9295 60.1437 79.22 60.1302C79.2793 60.4327 79.3532 60.7164 79.3897 61.0106C79.4084 61.1515 79.3532 61.3078 79.3303 61.4684H80.56ZM56.616 56.3923C56.5234 56.237 56.3953 56.0941 56.3484 55.9294C56.1576 55.2065 55.9764 54.4811 55.805 53.7533C55.7217 53.4136 55.6529 53.0749 55.5801 52.7363H54.4327C54.4379 52.7912 54.4556 52.8046 54.4743 52.8088C54.8804 52.9331 54.9075 52.9558 54.7825 53.3639C54.5364 54.1737 54.2786 54.9799 54.0089 55.7823C53.9308 56.0205 53.8621 56.2774 53.5768 56.3778H54.4514C54.3869 56.2722 54.263 56.1583 54.2713 56.0671C54.3182 55.7461 54.4098 55.4302 54.4931 55.0956C54.7784 55.0811 55.0366 55.0718 55.3218 55.0583C55.3812 55.3473 55.4322 55.6218 55.4926 55.8973C55.5342 56.0806 55.5655 56.2598 55.3635 56.3913H56.616V56.3923ZM65.3296 54.3717H64.2426C64.2468 53.8631 64.1739 53.3774 64.3207 52.8409C64.5831 52.8782 64.8549 52.8512 65.0496 52.96C65.1912 53.0428 65.237 53.2997 65.3296 53.4872C65.3432 53.2448 65.3525 52.9921 65.3661 52.7269H63.1473C63.1473 52.7404 63.1432 52.7539 63.1432 52.7684L63.4326 52.8782C63.4566 53.0149 63.5024 53.1713 63.5024 53.3225C63.5117 54.1013 63.5117 54.8802 63.5024 55.6539C63.4972 55.9522 63.544 56.2857 63.1067 56.383C63.1861 56.4123 63.2699 56.4277 63.3545 56.4286C63.898 56.4286 64.4415 56.4379 64.985 56.4234C65.1329 56.4193 65.3442 56.3923 65.414 56.296C65.5472 56.1075 65.5608 55.861 65.5243 55.6228C65.483 55.6569 65.4537 55.7034 65.441 55.7554C65.3348 56.1811 65.137 56.3002 64.5894 56.2681C64.3364 56.2546 64.3218 56.2266 64.2572 55.7274C64.2572 55.7181 64.2531 55.714 64.2531 55.7046V54.6047C64.4696 54.6047 64.6487 54.6099 64.8288 54.6047C65.0131 54.6099 65.2151 54.642 65.3307 54.3717H65.3296ZM106.664 53.6021C106.683 53.6021 106.701 53.597 106.724 53.597V52.8181H104.582C104.854 52.8916 104.891 53.0884 104.891 53.309V55.8279C104.891 56.1034 104.914 56.3965 104.509 56.4514C104.559 56.4824 104.587 56.4969 104.614 56.4969C105.273 56.4969 105.931 56.5021 106.59 56.4928C106.659 56.4928 106.765 56.4607 106.793 56.4151C106.923 56.1988 106.967 55.9422 106.917 55.6953C106.881 55.7181 106.862 55.7409 106.858 55.7678C106.779 56.2401 106.646 56.3509 106.015 56.3602C105.775 56.3644 105.684 56.2732 105.669 56.0257C105.646 55.6684 105.637 55.3111 105.628 54.9537C105.628 54.8709 105.646 54.7932 105.661 54.6741H106.01C106.176 54.6741 106.347 54.6876 106.512 54.6596C106.59 54.6461 106.655 54.555 106.729 54.4949C106.715 54.4824 106.702 54.4685 106.691 54.4535H105.674V52.9931C105.918 52.8995 106.19 52.9058 106.429 53.0107C106.697 53.1164 106.609 53.3908 106.664 53.6011V53.6021ZM58.1268 57.8123H56.0257C56.1038 57.9221 56.2599 58.0402 56.2652 58.1603C56.2829 59.1359 56.2787 60.1075 56.2693 61.0831C56.2693 61.2488 56.1964 61.3762 56.0028 61.399C55.9653 61.4042 55.933 61.4311 55.8549 61.4684C55.9424 61.4912 55.984 61.514 56.0257 61.514L57.8634 61.486C58.2278 61.4818 58.4672 61.051 58.2777 60.7164C58.2642 60.7486 58.2496 60.7765 58.2403 60.8035C58.1122 61.2529 57.7197 61.4725 57.273 61.3348C57.2001 61.312 57.1033 61.2208 57.0981 61.1566C57.0617 60.675 57.0481 60.1893 57.0252 59.6901H57.4438C57.5729 59.6901 57.7061 59.7046 57.8352 59.6766C57.9321 59.6538 58.0195 59.5803 58.1122 59.5254C58.0976 59.4943 58.0883 59.4663 58.0747 59.4342H57.0887V57.8941C57.3657 57.9314 57.6051 57.9407 57.8217 58.0039C58.1164 58.0868 57.9831 58.4027 58.0706 58.6005C58.0883 58.5953 58.107 58.5901 58.1299 58.586C58.1257 58.3436 58.1257 58.0919 58.1257 57.8123H58.1268ZM112.362 52.8139C112.706 52.8864 112.716 53.1433 112.716 53.4002V55.7782C112.716 56.0619 112.744 56.3685 112.311 56.4514C112.385 56.4783 112.402 56.4928 112.425 56.4928C113.084 56.4928 113.743 56.4969 114.401 56.4876C114.475 56.4876 114.586 56.4462 114.618 56.3913C114.745 56.1778 114.786 55.9244 114.733 55.6818C114.689 55.7468 114.66 55.8202 114.646 55.8973C114.599 56.1303 114.47 56.2867 114.226 56.3188C114.097 56.3364 113.968 56.3602 113.839 56.3602C113.6 56.3602 113.512 56.2774 113.494 56.0298C113.48 55.8641 113.462 55.6953 113.457 55.5306C113.453 55.2551 113.457 54.9765 113.457 54.6648C113.702 54.6782 113.89 54.7062 114.074 54.6958C114.255 54.6876 114.466 54.7103 114.54 54.4535H113.494V52.9144C113.776 52.9465 114.01 52.9507 114.231 53.0066C114.53 53.0843 114.438 53.3908 114.498 53.6063L114.557 53.5928C114.572 53.3411 114.586 53.0884 114.599 52.8181C113.807 52.8139 113.084 52.8139 112.362 52.8139ZM65.5504 57.8123H63.3764C63.6762 57.8765 63.7179 58.1002 63.7179 58.325C63.7221 59.1867 63.7127 60.0474 63.7033 60.9091C63.6992 61.1701 63.695 61.4363 63.2941 61.4404C63.3722 61.4912 63.4232 61.5181 63.4732 61.5181C64.0935 61.5169 64.7138 61.5066 65.3338 61.487C65.4577 61.4784 65.5734 61.4223 65.6566 61.3306C65.7763 61.1753 65.7898 60.8086 65.7117 60.6885C65.693 60.7403 65.6753 60.7817 65.6659 60.8221C65.5514 61.2571 65.1172 61.4953 64.6935 61.3348C64.6154 61.3078 64.5279 61.1887 64.5186 61.1017C64.4873 60.7765 64.4769 60.4461 64.4686 60.1209C64.4634 59.979 64.4686 59.8413 64.4686 59.6952H65.0902C65.2838 59.6952 65.4723 59.6849 65.5556 59.4467H64.5102V57.9035C64.7861 57.9407 65.0204 57.9449 65.2422 58.0091C65.5233 58.0868 65.4629 58.3799 65.5597 58.5818C65.5504 58.3343 65.5504 58.0868 65.5504 57.8123ZM83.9958 42.6702C83.3232 41.9742 82.913 41.1404 82.6423 40.2331C82.3706 39.331 82.2456 38.4051 82.1634 37.4616C81.573 38.4786 81.4075 39.5278 81.8677 40.6277C82.2737 41.6075 82.9089 42.3677 83.9958 42.6702ZM54.0828 57.8071C54.391 57.9904 54.4191 58.0039 54.3411 58.3664C54.1932 59.0303 54.0183 59.6859 53.8569 60.3405C53.8475 60.3778 53.8153 60.4099 53.7601 60.4876C53.5112 59.6176 53.2166 58.8107 53.1156 57.9635C53.226 57.9086 53.2957 57.8713 53.4102 57.8123H51.9693C52.2358 57.89 52.3056 58.1002 52.3691 58.3198C52.4576 58.6274 52.5492 58.934 52.6367 59.2416C52.8209 59.8786 53.0011 60.5155 53.1885 61.1514C53.2489 61.3586 53.3603 61.5181 53.6133 61.5688C53.6445 61.4725 53.6778 61.399 53.7007 61.3213C53.986 60.4368 54.263 59.5482 54.5618 58.6637C54.6722 58.3343 54.7096 57.9314 55.1417 57.7937C54.7877 57.8071 54.4337 57.8071 54.0828 57.8071ZM85.364 57.7978C85.5243 57.9532 85.7138 58.0826 85.8283 58.2608C86.3218 59.0489 86.5842 59.9013 86.4915 60.8501C86.4645 61.1514 86.4135 61.3679 86.0824 61.4218C86.0772 61.4218 86.0824 61.4497 86.0772 61.4591H87.667C87.2808 61.2851 87.2526 61.2664 87.2485 61.0282C87.2391 60.6574 87.1839 60.2721 87.2579 59.9148C87.4234 59.1173 87.6077 58.3022 88.3854 57.8299C88.0085 57.6652 87.7139 57.7667 87.5713 58.1468C87.4234 58.5446 87.3078 58.9578 87.1746 59.3648C87.1516 59.4384 87.1235 59.5067 87.1017 59.5803C87.0319 59.5078 87.0184 59.4425 86.9996 59.3783C86.8705 58.9433 86.7508 58.499 86.5988 58.0681C86.5624 57.9583 86.4197 57.8216 86.3135 57.8123C85.9959 57.775 85.6638 57.7978 85.365 57.7978H85.364ZM76.2026 52.8274C75.6279 52.4981 74.6377 52.6576 74.1442 53.1205C73.7486 53.4872 73.582 53.9543 73.5549 54.4721C73.5279 55.0035 73.5914 55.5254 73.9422 55.9656C74.4441 56.5891 75.4061 56.5663 75.959 56.3696C75.9913 56.3551 76.0423 56.3323 76.0517 56.3043C76.1568 56.0164 76.2172 55.7233 76.1568 55.4157C76.0975 55.5255 76.0694 55.6404 76.0371 55.7554C75.9267 56.1262 75.6779 56.3281 75.3291 56.3281C74.9595 56.3281 74.6742 56.0982 74.5451 55.6404C74.3337 54.8978 74.3285 54.1469 74.5961 53.4136C74.6694 53.2382 74.7794 53.0804 74.9189 52.9507C75.1396 52.7446 75.4113 52.7591 75.6737 52.873C75.9267 52.9838 76.0423 53.1806 76.0277 53.4551C76.0236 53.5327 76.0465 53.6156 76.06 53.6933C76.0829 53.6933 76.1121 53.6891 76.1339 53.6891L76.2026 52.8274ZM91.687 55.5172C91.6547 55.5068 91.6183 55.5027 91.586 55.4933C91.5537 55.6218 91.5256 55.7502 91.484 55.8745C91.3924 56.1676 91.1987 56.3592 90.8853 56.4058C90.573 56.4514 90.3283 56.3188 90.1669 56.0578C90.0794 55.9149 89.992 55.7554 89.9732 55.599C89.9157 55.1324 89.8879 54.6626 89.8899 54.1925C89.9004 53.8176 90.0055 53.4551 90.2502 53.1485C90.4439 52.9051 90.7427 52.8233 91.0561 52.9279C91.3601 53.0294 91.4798 53.2034 91.4934 53.5462C91.4986 53.6197 91.5163 53.6933 91.5256 53.7616C91.5485 53.7616 91.5767 53.7575 91.5985 53.7575C91.6183 53.4685 91.636 53.1847 91.6589 52.8875C91.2539 52.6948 90.853 52.7125 90.4668 52.7818C89.6786 52.9237 89.1767 53.4644 89.0476 54.294C88.9508 54.9123 88.9883 55.5213 89.3933 56.034C89.7942 56.5384 90.8437 56.7403 91.4288 56.4421C91.4746 56.4193 91.535 56.3778 91.5433 56.3364C91.5996 56.0671 91.6412 55.7916 91.687 55.5172ZM115.612 57.949C115.534 57.8993 115.507 57.8713 115.47 57.862C114.825 57.6839 113.871 57.7429 113.337 58.4855C112.955 59.0168 112.932 59.6124 113.001 60.2172C113.135 61.3803 114.508 62.0359 115.502 61.4042C115.553 61.1287 115.627 60.8407 115.585 60.5342C115.507 60.6709 115.475 60.8169 115.424 60.9547C115.327 61.2208 115.138 61.3948 114.857 61.4363C114.563 61.4818 114.3 61.3897 114.139 61.1287C114.032 60.9541 113.952 60.7641 113.904 60.5652C113.787 60.0664 113.773 59.5491 113.863 59.0448C113.922 58.7051 114.01 58.3716 114.272 58.1189C114.494 57.9035 114.756 57.8713 115.037 57.977C115.313 58.0774 115.452 58.2794 115.46 58.5673C115.465 58.6367 115.475 58.7051 115.479 58.7745C115.502 58.7745 115.525 58.7693 115.549 58.7693C115.576 58.4948 115.595 58.2204 115.612 57.949ZM124.101 56.4783C123.742 56.3136 123.719 56.2867 123.709 55.9107C123.703 55.6436 123.701 55.3763 123.704 55.1091C123.704 55.0128 123.723 54.9165 123.737 54.7984C124.004 54.7984 124.248 54.8025 124.492 54.7932C124.644 54.788 124.791 54.7518 124.796 54.5498H123.709C123.732 54.0143 123.649 53.5006 123.788 52.9372C124.046 52.9693 124.299 52.9652 124.519 53.0428C124.791 53.134 124.694 53.4509 124.764 53.6663L124.833 53.6518V52.8181H122.632C123 52.8782 122.972 53.1661 122.976 53.4136C122.986 54.2204 122.986 55.0314 122.976 55.8372C122.972 56.0858 122.991 56.3602 122.682 56.4835C123.147 56.4783 123.626 56.4783 124.101 56.4783ZM123.193 61.5326C122.82 61.3803 122.82 61.3803 122.765 60.9961C122.751 60.913 122.743 60.8288 122.742 60.7444C122.737 59.9428 122.737 59.1411 122.737 58.3384C122.737 58.238 122.761 58.1323 122.779 57.9677C123.037 58.0091 123.28 58.0091 123.493 58.0919C123.774 58.2017 123.607 58.5166 123.742 58.7144L123.783 57.8341H120.988V58.7921C121.084 58.5124 121.093 58.2245 121.245 58.1002C121.406 57.9728 121.701 58.0039 121.946 57.9677C121.978 58.0816 122.005 58.1417 122.005 58.1966C122.001 59.1132 121.986 60.0246 121.986 60.9412C121.986 61.2571 121.867 61.4487 121.53 61.4684C121.526 61.4684 121.522 61.4912 121.513 61.5233C122.079 61.5316 122.636 61.5316 123.193 61.5316V61.5326ZM59.3606 57.803L59.4158 58.673C59.5303 58.4576 59.3887 58.151 59.6656 58.0371C59.877 57.949 60.13 57.9635 60.4205 57.9262V58.5363C60.4153 59.2778 60.4382 60.0153 60.4059 60.7579C60.3788 61.3348 60.3747 61.3441 59.9457 61.4218C59.9363 61.4218 59.9322 61.4446 59.9134 61.4818H61.6085C61.6272 61.4591 61.6397 61.4363 61.6595 61.4124C61.1337 61.4269 61.1941 61.0603 61.1524 60.7579C61.1472 60.7216 61.1472 60.6802 61.1472 60.644V58.2618C61.1472 58.1644 61.1712 58.0733 61.1847 57.9583C61.369 57.9583 61.5304 57.9407 61.6866 57.9635C61.9864 58.0049 62.0739 58.1189 62.078 58.4254C62.078 58.5083 62.0916 58.586 62.0968 58.6688C62.1145 58.6688 62.1384 58.6637 62.1561 58.6637L62.1978 57.7937C61.2441 57.803 60.333 57.803 59.3606 57.803ZM124.4 61.4591C124.791 61.6507 125.298 61.6693 125.707 61.5181C126.123 61.3669 126.38 61.0738 126.459 60.6377C126.537 60.1893 126.376 59.8278 126.003 59.5616C125.796 59.4156 125.579 59.2872 125.386 59.1266C125.238 59.0075 125.11 58.8651 125.008 58.7051C124.884 58.4948 124.93 58.2701 125.091 58.0919C125.285 57.8765 125.538 57.8765 125.791 57.9583C126.017 58.0319 126.15 58.1831 126.155 58.4306C126.155 58.5135 126.169 58.6005 126.173 58.6823C126.196 58.6823 126.219 58.6782 126.243 58.6782V57.9086C126.044 57.7802 125.772 57.7429 125.399 57.7937C124.953 57.8527 124.557 58.1645 124.474 58.5725C124.377 59.0396 124.428 59.4746 124.852 59.7864C125.091 59.9656 125.348 60.1209 125.57 60.3177C125.707 60.4461 125.828 60.6201 125.897 60.7993C125.979 61.0096 125.851 61.2654 125.667 61.3721C125.192 61.6413 124.561 61.2944 124.538 60.7527L124.525 60.4554C124.502 60.4554 124.478 60.4554 124.455 60.4596C124.432 60.7941 124.418 61.1328 124.4 61.4591ZM118.432 61.4591C118.943 61.7283 119.675 61.6103 120.002 61.399C120.555 61.0468 120.711 60.1023 120.122 59.6445C119.941 59.5026 119.739 59.3876 119.565 59.2406C119.384 59.0904 119.2 58.9392 119.057 58.7507C118.905 58.5497 118.951 58.2846 119.113 58.0961C119.265 57.9128 119.574 57.8579 119.836 57.9583C119.946 57.9956 120.041 58.0677 120.106 58.1637C120.171 58.2597 120.202 58.3742 120.195 58.4897V58.6864H120.274V57.8807C119.998 57.7388 119.702 57.7564 119.417 57.7978C118.993 57.8579 118.666 58.0826 118.533 58.5042C118.394 58.934 118.422 59.3555 118.791 59.6807C119.025 59.8879 119.293 60.0526 119.532 60.2587C119.675 60.3829 119.813 60.5238 119.896 60.6895C120.029 60.9547 119.924 61.2664 119.679 61.3803C119.55 61.4416 119.408 61.468 119.266 61.4569C119.123 61.4458 118.987 61.3976 118.869 61.3172C118.63 61.1659 118.556 60.9371 118.579 60.6657C118.584 60.5932 118.569 60.5197 118.565 60.4513C118.537 60.4513 118.514 60.4513 118.487 60.4554C118.464 60.79 118.445 61.1338 118.432 61.4591ZM99.7509 55.6176C99.7197 55.6083 99.6864 55.6042 99.6541 55.5948C99.6364 55.6446 99.6125 55.6912 99.6041 55.7409C99.4938 56.2173 99.3459 56.3457 98.8711 56.3644C98.5723 56.3778 98.439 56.296 98.4297 56.0019C98.4068 55.1412 98.4151 54.2847 98.4151 53.423C98.4151 53.2945 98.4109 53.1537 98.4672 53.0428C98.5119 52.9465 98.641 52.8916 98.7337 52.8233H97.3104C97.5915 52.873 97.6644 53.0511 97.6644 53.2945C97.6644 54.1645 97.6644 55.0314 97.6602 55.9014C97.6602 56.1531 97.6238 56.3965 97.2917 56.4514C97.3427 56.4783 97.3843 56.4928 97.426 56.4928C98.0288 56.5063 98.6317 56.5239 99.2355 56.5197C99.3459 56.5197 99.526 56.4472 99.5583 56.3644C99.6541 56.1303 99.6916 55.8693 99.7509 55.6176ZM100.902 52.8139C101.206 52.8864 101.252 53.1071 101.252 53.3629C101.252 54.179 101.258 54.9941 101.248 55.8103C101.244 56.0899 101.271 56.411 100.838 56.4648C100.958 56.4928 101.05 56.4928 101.147 56.4928C101.644 56.4969 102.141 56.4928 102.639 56.5104C102.823 56.5156 103.04 56.5705 103.141 56.383C103.27 56.1448 103.325 55.8693 103.274 55.5897C103.191 55.7409 103.155 55.9014 103.086 56.0485C102.98 56.2763 102.626 56.4006 102.303 56.3551C102.054 56.3188 101.999 56.1355 101.994 55.9387C101.989 55.077 101.994 54.2153 101.999 53.3546C101.999 53.2407 102.003 53.1112 102.058 53.0201C102.113 52.9331 102.238 52.8875 102.353 52.8088C101.851 52.8139 101.377 52.8139 100.902 52.8139ZM97.9226 50.4214C97.679 48.9787 98.1527 47.6778 98.715 46.3956C98.6849 46.3779 98.6543 46.361 98.6233 46.3449C98.3974 46.5551 98.1756 46.7623 97.9185 47.0046C97.8903 46.8803 97.8352 46.7706 97.8539 46.6701C97.9049 46.3863 97.9455 46.0973 98.0569 45.8363C98.1673 45.566 98.1808 45.3413 97.9684 45.1124C97.8404 45.3092 97.6509 45.4883 97.5915 45.7027C97.274 46.8399 97.1907 47.9989 97.402 49.1672C97.476 49.6157 97.5822 50.06 97.9226 50.4225V50.4214ZM99.0367 39.5278C99.576 39.5278 100.07 39.5786 100.548 39.8302C99.9904 40.2238 99.3928 40.5407 98.9409 41.0493C99.8613 40.5625 100.819 40.1824 101.921 40.0136C101.796 39.9266 101.741 39.8665 101.671 39.8437C101.359 39.7432 101.046 39.6562 100.733 39.5547C100.64 39.5237 100.553 39.4677 100.465 39.4222C100.52 39.3352 100.557 39.2119 100.636 39.1612C101.174 38.8173 101.759 38.6019 102.404 38.5843C102.649 38.5739 102.893 38.5843 103.137 38.5843C102.546 38.2632 101.944 38.1254 101.294 38.3139C100.631 38.5014 100.041 38.8401 99.4709 39.2212C99.3324 39.3176 99.1845 39.4222 99.0377 39.5278H99.0367ZM72.2712 61.4725C72.0223 61.3627 72.0182 61.1473 72.0129 60.9371C72.0088 60.1209 72.0036 59.3058 72.0088 58.4897C72.0088 58.2338 71.9484 57.9449 72.2712 57.8123H70.977C71.0603 57.9169 71.1935 58.0184 71.2258 58.1468C71.2768 58.3664 71.2768 58.6005 71.2716 58.8294C71.2675 59.4933 71.2487 60.153 71.2404 60.818C71.2352 61.0976 71.2404 61.3772 70.8854 61.4767C71.3497 61.4725 71.811 61.4725 72.2712 61.4725ZM117.622 61.514C117.548 61.4 117.41 61.2851 117.41 61.1659C117.386 60.2172 117.396 59.2644 117.386 58.3157C117.386 58.1054 117.451 57.949 117.663 57.8579H116.231C116.613 58.0319 116.627 58.0453 116.627 58.4441C116.627 59.2457 116.627 60.0432 116.622 60.8449C116.622 61.1193 116.618 61.4042 116.272 61.5181C116.733 61.514 117.198 61.514 117.622 61.514ZM72.4513 56.3913C72.2295 56.3229 72.1879 56.1531 72.1879 55.9667C72.1795 55.0904 72.165 54.2111 72.1608 53.3359C72.1608 53.1806 72.2066 53.0252 72.2295 52.8916C72.3357 52.8409 72.4044 52.8046 72.4742 52.7673C72.469 52.7591 72.469 52.7446 72.4638 52.7363H71.0644C71.0644 52.7497 71.0603 52.7673 71.0603 52.7818C71.1436 52.8088 71.2258 52.8367 71.3497 52.873C71.3685 52.9558 71.4143 53.0563 71.4195 53.1526C71.4236 54.0278 71.4236 54.9071 71.4143 55.7833C71.4101 56.0298 71.3914 56.296 71.0686 56.3872C71.5298 56.3923 71.99 56.3923 72.4513 56.3923V56.3913ZM81.293 22.6084C81.3992 22.2428 81.4637 21.9486 81.5647 21.6607C81.7813 21.0517 82.0436 20.4551 82.2331 19.842C82.4216 19.2413 82.61 18.6323 82.5455 17.9818C82.5143 17.6701 82.458 17.3635 82.2602 17.1067C82.205 17.8441 82.0072 18.5318 81.7865 19.2237C81.5647 19.9103 81.3721 20.6115 81.2107 21.3127C81.118 21.7197 81.1691 22.1413 81.294 22.6084H81.293ZM50.5137 39.5962C50.5324 39.6883 50.5408 39.8251 50.5782 39.9587C50.748 40.5262 51.2738 40.6547 51.6975 40.2424C52.0619 39.8851 52.1806 39.2119 51.9682 38.7489C51.785 38.3502 51.3654 38.2363 51.0103 38.4879C50.647 38.7489 50.546 39.1342 50.5137 39.5962ZM126.657 39.4636C126.666 39.5185 126.675 39.6428 126.703 39.7619C126.772 40.0415 126.929 40.2518 127.218 40.3212C127.509 40.3843 127.729 40.2383 127.896 40.0229C128.218 39.6055 128.292 39.1342 128.113 38.6392C127.932 38.1534 127.431 38.0529 127.058 38.4103C126.772 38.6754 126.661 39.0151 126.657 39.4636ZM50.1451 39.6376C50.1451 39.1518 49.9567 38.7355 49.6391 38.5149C49.2435 38.2456 48.8228 38.3823 48.6708 38.8359C48.5334 39.2575 48.6021 39.6645 48.8322 40.0405C49.054 40.3937 49.3809 40.5542 49.6433 40.4755C49.9556 40.3802 50.141 40.0726 50.1451 39.6376ZM126.338 39.4998L126.283 39.4729C126.266 39.0555 126.15 38.6754 125.819 38.3916C125.487 38.1078 125.059 38.1845 124.852 38.5698C124.561 39.098 124.819 39.9721 125.353 40.2559C125.606 40.3895 125.869 40.3698 126.035 40.142C126.169 39.9535 126.243 39.7153 126.338 39.4998ZM129.457 40.5956C129.424 40.3471 129.374 40.0778 129.088 39.9535C128.799 39.8344 128.55 39.9493 128.333 40.1503C128.052 40.4071 127.923 40.7417 127.914 41.1135C127.91 41.3973 128.001 41.6676 128.292 41.7908C128.573 41.9151 128.816 41.7908 129.029 41.6034C129.318 41.3424 129.434 41.0027 129.457 40.5956ZM53.3228 40.7966C53.3186 40.5273 53.2541 40.2476 52.9584 40.114C52.6689 39.9814 52.4159 40.114 52.2035 40.3067C51.9047 40.5718 51.785 40.925 51.7891 41.3144C51.7943 41.5847 51.8912 41.8364 52.1619 41.9462C52.4388 42.057 52.6877 41.9566 52.899 41.7598C53.1666 41.5071 53.2999 41.1901 53.3228 40.7966ZM125.045 41.2647C125.045 40.7365 124.791 40.3015 124.386 40.1006C124.004 39.9079 123.617 40.0778 123.548 40.4941C123.465 40.9892 123.622 41.4159 124.018 41.7318C124.221 41.8913 124.455 42.0063 124.717 41.8737C124.985 41.7453 125.059 41.5029 125.045 41.2647ZM48.9113 41.3973C48.9113 40.9063 48.6989 40.5221 48.3303 40.2932C47.9024 40.0322 47.4558 40.2383 47.4047 40.7375C47.3589 41.1767 47.5109 41.5526 47.8379 41.8457C48.0544 42.0384 48.3126 42.1575 48.5979 42.0291C48.8738 41.9048 48.9207 41.6448 48.9103 41.3973H48.9113ZM82.812 22.3474C82.3747 22.3381 81.8864 22.8518 81.7896 23.7953C81.725 24.4374 82.3331 25.4587 82.9182 25.6461C82.3654 24.5555 82.1259 23.4753 82.812 22.3474ZM86.1792 19.0807C86.5103 18.9212 86.6259 18.6685 86.6852 18.3899C86.8102 17.8027 86.8601 17.2164 86.782 16.6209C86.7175 16.1673 86.5748 15.7406 86.2115 15.4298C86.0959 15.3335 85.9533 15.2693 85.8242 15.1916C85.8012 15.26 85.8106 15.2828 85.82 15.3014C86.5238 16.4148 86.7269 17.5831 86.2021 18.8291C86.1698 18.8891 86.1834 18.9709 86.1792 19.0807ZM84.7236 21.6969C83.7887 22.2107 83.3784 24.6197 84.102 25.1925C83.9542 23.9745 84.3269 22.8466 84.7236 21.6969ZM80.6891 49.5981C80.3569 49.7348 80.0581 51.0046 80.2237 51.4344H80.8275C80.7765 50.8119 80.7349 50.2205 80.6891 49.5981ZM88.9144 17.6463C89.2965 17.8213 89.6609 17.9818 90.0201 18.1465C90.0378 18.1237 90.0513 18.1009 90.0701 18.0782C89.9691 17.9684 89.8681 17.8576 89.7713 17.7571C89.7577 17.6193 89.739 17.4919 89.7254 17.3677C89.7754 17.3128 89.8212 17.2672 89.8816 17.1978L89.5589 16.5888C89.5453 16.594 89.5318 16.6023 89.5172 16.6074C89.5547 16.768 89.587 16.9285 89.614 17.0611C89.3381 17.1937 89.0851 17.3128 88.8321 17.436C88.8738 17.5417 88.9008 17.6059 88.9154 17.6473L88.9144 17.6463ZM85.9074 20.6851C85.8606 21.4453 86.579 22.4074 87.2651 22.307C86.8143 21.7653 86.3593 21.2205 85.9074 20.6851ZM85.2161 24.6653C85.2255 25.7238 85.7679 26.1774 86.2344 26.2323C85.9116 25.7331 85.5618 25.1966 85.2161 24.6663V24.6653ZM95.1687 30.6859C94.9521 30.5761 94.7179 30.457 94.4597 30.3234C94.4409 30.4891 94.4274 30.6258 94.4139 30.7688L94.6023 30.9055C94.57 31.0474 94.5336 31.1851 94.4878 31.3778L95.1687 30.6859Z" fill="black"/>
<path d="M111.247 36.257C111.196 35.9131 111.15 35.5651 111.09 35.2212C110.694 32.8981 109.869 30.7221 108.751 28.6517C107.84 26.9703 106.726 25.4055 105.435 23.992C104.411 22.8635 103.267 21.8494 102.022 20.9677C99.4898 19.1769 96.6367 17.8849 93.6163 17.1615C93.2571 17.0745 92.8979 17.0144 92.5335 16.9461C92.3409 16.9098 92.2305 16.8135 92.166 16.6209C92.0514 16.2729 91.9077 15.9342 91.7786 15.5955C91.6589 15.2879 91.7651 15.1501 92.092 15.2009C94.3689 15.5495 96.5875 16.2045 98.6868 17.148C100.562 17.9707 102.32 19.0364 103.915 20.3173C105.26 21.4079 106.42 22.6684 107.489 24.0252C108.699 25.5452 109.743 27.1879 110.606 28.9262C111.412 30.5802 112.052 32.2891 112.37 34.113C112.444 34.5252 112.407 34.896 112.168 35.244C111.993 35.5009 111.836 35.7753 111.652 36.027C111.569 36.1378 111.44 36.2155 111.33 36.3067C111.302 36.2932 111.275 36.2756 111.247 36.257ZM91.6089 83.4358C91.5308 82.7988 91.4569 82.1753 91.3788 81.5156L92.0139 81.4286C92.4471 81.3737 92.8802 81.3095 93.3133 81.2732C93.5289 81.2546 93.76 81.2774 93.9755 81.3147C94.418 81.3975 94.6627 81.6575 94.722 82.0707C94.7772 82.4591 94.6117 82.8123 94.2244 82.9863C93.9578 83.1106 93.6621 83.1831 93.3727 83.2297C92.9125 83.3074 92.446 83.3488 91.9817 83.4037C91.8713 83.4265 91.7609 83.4265 91.6089 83.4348V83.4358ZM91.3143 80.9522C91.2404 80.3204 91.1664 79.7197 91.0883 79.0827C91.3413 79.0465 91.5631 79.0102 91.788 78.9822C92.1524 78.9367 92.5168 78.8818 92.8844 78.8631C93.0968 78.8497 93.3175 78.8673 93.5153 78.9274C93.861 79.0237 94.0723 79.266 94.114 79.6327C94.1598 80.0262 94.0411 80.3525 93.6861 80.5441C93.4883 80.6497 93.2623 80.7326 93.0405 80.774C92.5762 80.8569 92.1014 80.8983 91.6266 80.9574C91.5392 80.9615 91.4475 80.9522 91.3143 80.9522ZM102.114 78.8176L101.179 76.7782C101.206 76.742 101.216 76.7151 101.235 76.7099C101.866 76.4302 102.478 76.1143 103.127 75.8948C103.859 75.6421 104.467 76.0408 104.578 76.7834C104.652 77.2598 104.412 77.6441 104.034 77.8647C103.426 78.2127 102.782 78.4923 102.114 78.8176ZM76.5535 7.51796C76.337 6.80746 76.1245 6.11975 75.9184 5.43307C75.9548 5.39682 75.9725 5.36471 76.0007 5.36057C76.6826 5.16378 77.3646 4.94732 78.0549 4.78678C78.5286 4.677 78.9805 4.938 79.1783 5.35021C79.399 5.81318 79.321 6.31757 78.9295 6.6376C78.741 6.79296 78.5109 6.93175 78.2798 7.01357C77.7592 7.19689 77.2303 7.34396 76.7003 7.50346C76.6639 7.50864 76.6274 7.50864 76.5535 7.51796ZM94.5929 3.74693C94.9657 3.82046 95.3072 3.88053 95.6476 3.95821C96.035 4.04521 96.4358 4.10425 96.7992 4.25132C97.5311 4.54443 97.73 5.32846 97.2552 5.92296C97.1422 6.07019 96.993 6.18595 96.8219 6.25907C96.6509 6.33218 96.4637 6.36018 96.2786 6.34035C95.5737 6.26785 94.8782 6.11146 94.1421 5.98821C94.2983 5.21764 94.4409 4.503 94.5929 3.74693ZM87.1964 5.49728C87.1964 4.34764 87.9252 3.42171 88.9789 3.23943C89.5319 3.14055 90.102 3.25702 90.571 3.56474C91.0401 3.87245 91.3722 4.34783 91.4986 4.89243C91.7693 5.99235 91.2903 7.10575 90.3429 7.577C88.9425 8.26885 87.2422 7.2611 87.1964 5.70753V5.49728ZM74.3702 9.5055C74.3795 10.7484 73.3935 11.6318 72.2285 11.6598C70.9895 11.6909 69.8931 10.5371 69.8931 9.2445C69.8931 8.07621 70.8978 7.07778 72.0723 7.0871C73.3207 7.09643 74.3754 8.20568 74.3702 9.5055ZM102.141 5.9965C102.192 6.95453 102.248 7.94364 102.303 8.99696C101.488 8.68625 100.728 8.39728 99.9769 8.1135C100.709 7.39885 101.423 6.70182 102.143 5.9965H102.141ZM82.153 6.25335C82.0384 5.46103 81.9281 4.68218 81.8083 3.84325C82.4393 3.77489 83.0369 3.69721 83.6366 3.65578C83.8345 3.64232 84.051 3.69721 84.2353 3.78007C85.0131 4.12289 85.1328 5.23628 84.429 5.71685C84.1666 5.89603 83.8386 6.00168 83.5211 6.07935C83.1525 6.1705 82.7662 6.19846 82.3841 6.24818C82.3195 6.25853 82.2498 6.25335 82.153 6.25335ZM93.8193 54.4721C93.8839 54.0505 93.9255 53.6797 94.0036 53.3224C94.0494 53.107 94.165 52.9009 94.4316 52.8771C94.7179 52.8543 94.8876 53.0335 94.9615 53.2675C95.0719 53.63 95.1729 53.9998 95.201 54.3757C95.2333 54.8066 95.1968 55.2416 95.1645 55.6725C95.15 55.8465 95.0812 56.0298 94.998 56.1903C94.8605 56.4648 94.5378 56.5155 94.3306 56.2866C94.203 56.1553 94.1097 55.9949 94.0588 55.8195C93.9578 55.3607 93.8922 54.8936 93.8193 54.4721ZM120.923 54.9899C120.882 55.2416 120.844 55.6124 120.762 55.9738C120.711 56.1903 120.6 56.3964 120.329 56.414C120.053 56.4327 119.91 56.2545 119.813 56.0339C119.523 55.3887 119.491 54.7061 119.542 54.0184C119.559 53.7574 119.624 53.4912 119.694 53.2396C119.749 53.0428 119.882 52.8916 120.117 52.8771C120.347 52.8636 120.513 52.992 120.587 53.1805C120.697 53.4685 120.785 53.7709 120.844 54.0733C120.895 54.3302 120.891 54.6005 120.923 54.9899ZM99.88 59.9831L99.1575 59.9468C99.2949 59.4383 99.4146 58.9795 99.5396 58.5217H99.6083C99.6957 58.9847 99.7832 59.4476 99.88 59.9831ZM110.404 59.951C110.542 59.4435 110.661 58.9847 110.786 58.5269H110.86C110.943 58.993 111.03 59.4611 111.127 59.9831C110.886 59.9708 110.645 59.9604 110.404 59.952V59.951ZM78.8191 53.4322C78.9024 53.89 78.9857 54.3436 79.0721 54.8294H78.3589C78.4922 54.3343 78.6119 53.8807 78.7358 53.427C78.7639 53.4322 78.791 53.4322 78.8191 53.4322ZM78.4557 59.9013C78.589 59.3969 78.7129 58.9381 78.8379 58.4803H78.9066C78.994 58.9432 79.0773 59.4021 79.169 59.9013H78.4557ZM55.2896 54.8294H54.5753L54.9585 53.4001H55.0272C55.1105 53.8724 55.1979 54.3395 55.2896 54.8294Z" fill="black"/>
</g>
<defs>
<clipPath id="clip0">
<rect width="177" height="87" fill="white"/>
</clipPath>
</defs>
</svg>
