<svg width="24" height="24" viewBox="0 0 24 24" fill="none" xmlns="http://www.w3.org/2000/svg">
<g clip-path="url(#clip0)">
<path d="M12.2261 10.2816H22.824C22.9413 10.9788 23 11.646 23 12.2808C23 14.5416 22.5563 16.56 21.6702 18.336C20.7829 20.112 19.5191 21.5004 17.8764 22.5C16.2338 23.4996 14.3516 24 12.2261 24C10.7161 24.0042 9.22377 23.6814 7.85544 23.0544C6.47188 22.4244 5.27777 21.5724 4.27433 20.4996C3.27088 19.4268 2.47399 18.1512 1.88488 16.6716C1.2933 15.1829 0.993088 13.598 0.999994 12C0.999994 10.3644 1.29455 8.80804 1.88488 7.32844C2.47522 5.84884 3.27088 4.57324 4.27433 3.50044C5.28354 2.42315 6.50139 1.55421 7.85666 0.944444C9.22472 0.318097 10.7166 -0.004359 12.2261 4.45006e-05C15.1497 4.45006e-05 17.6601 1.04644 19.755 3.14044L16.6994 6.28084C15.5017 5.04124 14.0106 4.42084 12.2261 4.42084C10.9697 4.42084 9.80733 4.76044 8.74033 5.43724C7.67333 6.11404 6.82755 7.03324 6.20422 8.19604C5.57751 9.36888 5.25589 10.6757 5.26799 12C5.26799 13.3752 5.58088 14.6436 6.20422 15.804C6.82755 16.9644 7.67333 17.886 8.74033 18.5628C9.77534 19.2303 10.9878 19.5835 12.2261 19.578C13.0743 19.578 13.8541 19.4532 14.5654 19.2036C15.2768 18.954 15.861 18.6396 16.3193 18.2652C16.7777 17.8908 17.1773 17.4636 17.5171 16.9848C17.8593 16.5048 18.1099 16.0524 18.2712 15.6252C18.4325 15.198 18.5413 14.7912 18.6 14.406H12.2261V10.2816Z" fill="black"/>
</g>
<defs>
<clipPath id="clip0">
<rect width="22" height="24" fill="white" transform="translate(1)"/>
</clipPath>
</defs>
</svg>
