<svg width="24" height="24" viewBox="0 0 24 24" fill="none" xmlns="http://www.w3.org/2000/svg">
<path d="M5.7065 11.2653L10.3932 13.5432C11.2957 13.9835 11.1553 15.3014 10.1821 15.5456L5.12384 16.802C4.97486 16.8388 4.81963 16.8436 4.66863 16.816C4.51762 16.7884 4.37438 16.729 4.24858 16.642C4.12278 16.5549 4.01737 16.4421 3.93946 16.3113C3.86155 16.1805 3.81297 16.0347 3.797 15.8837C3.64135 14.536 3.78545 13.1709 4.21923 11.884C4.42717 11.2694 5.12806 10.9835 5.70756 11.2653H5.7065ZM7.7775 22.4795C8.897 23.244 10.1719 23.7576 11.5131 23.9842C11.6645 24.0093 11.8195 24.0021 11.9679 23.963C12.1162 23.9239 12.2543 23.8538 12.3729 23.7575C12.4915 23.6612 12.5879 23.5409 12.6555 23.4047C12.7232 23.2685 12.7605 23.1195 12.765 22.9679L12.9476 17.7724C12.9814 16.7748 11.7485 16.2771 11.0751 17.018L7.58434 20.882C7.48211 20.9956 7.40545 21.1294 7.35941 21.2745C7.31338 21.4196 7.29901 21.5727 7.31727 21.7237C7.33553 21.8747 7.38599 22.0202 7.46533 22.1505C7.54466 22.2807 7.65107 22.3929 7.7775 22.4795ZM14.6133 17.3268L17.3788 21.7345C17.4596 21.8638 17.5676 21.9744 17.6953 22.0589C17.8231 22.1433 17.9678 22.1997 18.1195 22.2241C18.2712 22.2486 18.4265 22.2405 18.5748 22.2005C18.7231 22.1605 18.8609 22.0895 18.9791 21.9922C20.0289 21.1268 20.8751 20.0453 21.4586 18.8232C21.524 18.6855 21.5593 18.5357 21.5621 18.3836C21.5649 18.2315 21.5351 18.0805 21.4747 17.9406C21.4143 17.8006 21.3246 17.6749 21.2116 17.5717C21.0986 17.4684 20.9648 17.39 20.8189 17.3414L15.8599 15.7376C14.9046 15.4329 14.0813 16.4785 14.6133 17.3268ZM21.5905 11.1286C21.0494 9.88753 20.2398 8.77876 19.2187 7.88022C19.1043 7.78005 18.9695 7.70528 18.8234 7.66095C18.6773 7.61662 18.5233 7.60377 18.3718 7.62325C18.2202 7.64273 18.0747 7.69409 17.9449 7.77388C17.8151 7.85367 17.7042 7.96003 17.6195 8.08579L14.7019 12.3954C14.1425 13.2249 14.9236 14.2987 15.8873 14.0221L20.9033 12.5926C21.5293 12.4089 21.8491 11.7244 21.5894 11.1286H21.5905ZM6.61006 1.41379C6.47629 1.47849 6.35739 1.56968 6.26074 1.68169C6.16408 1.7937 6.09174 1.92414 6.04819 2.06493C6.00465 2.20572 5.99082 2.35385 6.00758 2.50014C6.02434 2.64643 6.07132 2.78776 6.14561 2.91535L11.0434 11.3727C11.5923 12.3192 13.0468 11.93 13.0468 10.8385V1.07153C13.0484 0.924755 13.0192 0.779256 12.9608 0.644281C12.9025 0.509306 12.8164 0.387807 12.7079 0.287509C12.5995 0.187211 12.4712 0.110307 12.3311 0.0616867C12.191 0.0130665 12.0422 -0.00620641 11.8942 0.00509311C10.8069 0.0885714 8.82145 0.365093 6.61006 1.41588V1.41379Z" fill="black"/>
</svg>
